<?xml version="1.0" standalone="no"?>
<!DOCTYPE svg PUBLIC "-//W3C//DTD SVG 20010904//EN"
 "http://www.w3.org/TR/2001/REC-SVG-20010904/DTD/svg10.dtd">
<svg version="1.0" xmlns="http://www.w3.org/2000/svg"
 width="1600.000000pt" height="896.000000pt" viewBox="0 0 1600.000000 896.000000"
 preserveAspectRatio="xMidYMid meet">

<g transform="translate(0.000000,896.000000) scale(0.100000,-0.100000)"
fill="#000000" stroke="none">
<path d="M0 4480 l0 -4480 8000 0 8000 0 0 4480 0 4480 -8000 0 -8000 0 0
-4480z m5001 1030 c13 -7 19 -21 19 -43 0 -26 12 -43 63 -92 34 -32 130 -126
213 -207 111 -109 158 -148 176 -148 30 0 48 -17 48 -45 0 -28 -18 -45 -48
-45 -17 0 -27 9 -39 38 -8 20 -38 59 -67 85 -28 27 -126 123 -217 213 -91 91
-172 164 -179 162 -7 -2 -20 9 -29 24 -14 25 -14 28 3 47 22 24 29 25 57 11z
m323 -52 c18 -44 125 -148 152 -148 11 0 29 -9 39 -20 15 -17 16 -24 7 -45
-22 -47 -100 -23 -91 28 2 6 -25 40 -60 73 -45 45 -67 60 -82 57 -26 -7 -49
14 -49 47 0 34 6 40 42 40 22 0 31 -7 42 -32z m-576 -244 c12 -8 22 -23 22
-33 0 -20 -2 -17 156 -172 66 -64 137 -125 159 -135 44 -21 59 -60 30 -84 -22
-18 -70 3 -61 26 8 22 -309 335 -330 327 -34 -13 -60 47 -32 75 16 16 29 15
56 -4z m260 -17 c6 -6 13 -24 17 -38 4 -15 30 -48 58 -74 29 -27 93 -87 142
-134 l90 -86 7 -110 c4 -60 9 -128 10 -150 3 -40 3 -40 -32 -40 -31 0 -35 3
-38 28 -2 17 4 37 13 47 14 16 16 35 13 114 l-4 96 -134 130 c-74 72 -134 135
-132 140 1 6 -11 10 -26 10 -15 0 -33 5 -40 12 -13 13 -16 50 -5 61 11 12 50
8 61 -6z m1037 -112 c50 -29 71 -55 143 -180 25 -44 87 -150 137 -235 132
-223 176 -306 167 -315 -4 -4 -1 -5 6 -1 6 4 12 5 12 3 0 -3 7 -22 16 -43 l15
-39 -23 26 c-23 26 -24 27 -112 18 -48 -4 -94 -13 -101 -19 -9 -8 -15 -8 -20
0 -13 21 -26 10 -14 -12 l12 -23 -25 23 c-21 19 -35 22 -99 22 -45 0 -80 5
-87 12 -9 9 -15 9 -24 -1 -11 -10 -10 -11 5 -5 13 5 16 2 11 -10 -3 -9 -9 -16
-13 -16 -7 1 -86 126 -97 153 -6 15 5 17 105 17 61 0 111 2 111 4 0 3 -57 102
-126 221 l-127 217 -41 -67 c-113 -185 -303 -487 -320 -509 -14 -18 -24 -22
-36 -16 -8 4 -46 8 -83 9 -37 0 -72 3 -77 6 -6 3 -10 -1 -10 -9 0 -9 -4 -16
-10 -16 -5 0 -10 6 -10 14 0 8 -5 18 -12 22 -6 4 -8 3 -5 -2 3 -6 2 -16 -4
-24 -7 -12 -9 -12 -9 3 0 17 29 71 95 177 12 19 91 148 175 285 84 138 162
261 174 273 68 75 207 92 301 37z m1840 -28 c212 -99 275 -353 129 -526 -37
-44 -119 -89 -175 -97 -70 -9 -76 -16 -47 -55 14 -19 34 -47 44 -64 l19 -29
-32 19 c-27 16 -30 21 -20 34 10 14 10 14 -4 4 -9 -7 -18 -10 -21 -7 -3 3 -9
0 -14 -7 -5 -8 -3 -10 7 -4 8 5 11 4 6 0 -4 -5 -28 -8 -52 -6 -32 2 -45 -1
-45 -11 0 -10 -2 -10 -9 1 -7 11 -11 10 -20 -5 -9 -17 -10 -17 -11 -1 0 9 -4
17 -10 17 -5 0 -10 -5 -10 -12 0 -6 -9 -1 -20 12 -11 13 -20 18 -20 12 0 -6 5
-14 10 -17 6 -3 10 -11 10 -18 0 -6 -8 0 -17 13 -10 14 -28 36 -40 50 -13 14
-26 33 -29 43 -5 16 -23 17 -237 15 l-232 -3 -3 -60 c-2 -41 -6 -55 -12 -45
-7 11 -30 15 -92 15 -46 0 -86 -4 -90 -10 -4 -6 -8 -1 -8 10 -1 17 -3 17 -12
-5 -10 -21 -13 -8 -20 85 -4 61 -7 170 -6 244 l3 135 120 0 120 1 2 -90 1 -90
349 0 c348 0 348 0 386 23 52 33 70 72 65 139 -6 65 -43 109 -104 123 -21 5
-241 10 -489 10 l-450 0 -1 95 -1 96 511 -3 511 -3 60 -28z m623 -352 c-2
-290 -6 -387 -15 -397 -9 -8 -13 -8 -13 -1 0 7 -31 13 -85 15 -47 2 -85 -1
-85 -6 0 -4 -7 -6 -15 -2 -8 3 -16 0 -16 -7 -1 -7 -5 15 -9 48 -4 33 -8 212
-9 398 l-1 337 126 0 125 0 -3 -385z m1142 87 c0 -318 -8 -485 -21 -476 -5 3
-9 -1 -9 -8 0 -11 -2 -11 -9 0 -10 17 -182 15 -193 -2 -4 -6 -8 168 -8 387 l0
397 120 0 120 0 0 -298z m624 190 c600 -584 769 -748 779 -754 6 -4 9 -10 5
-13 -3 -3 -27 14 -52 39 -25 26 -53 46 -61 46 -8 0 -15 7 -15 15 0 18 -14 19
-28 3 -7 -10 -38 -12 -116 -8 -85 4 -105 2 -101 -8 11 -29 -40 16 -249 219
-83 81 -194 187 -246 237 l-95 91 -6 -242 c-8 -316 -8 -314 -17 -300 -8 13
-162 21 -181 9 -7 -5 -9 -1 -5 11 3 10 -3 5 -15 -12 l-21 -30 -2 85 c-1 47 -2
228 -2 402 l-1 318 159 0 160 0 110 -108z m1036 -209 c0 -175 -3 -347 -6 -383
l-6 -65 -102 -3 c-55 -2 -109 -5 -118 -8 -17 -5 -18 18 -18 385 l0 391 125 0
125 0 0 -317z m-6651 108 c10 -6 12 -19 7 -42 -4 -19 -11 -77 -16 -129 -4 -52
-9 -97 -10 -100 -5 -10 -19 87 -19 135 -1 39 -6 53 -21 63 -22 14 -25 33 -10
63 11 20 45 25 69 10z m171 -270 c0 -73 4 -99 16 -112 19 -22 12 -64 -12 -73
-22 -9 -64 20 -64 43 0 10 7 24 15 31 12 10 15 41 16 159 0 142 1 145 14 96 8
-27 14 -92 15 -144z m180 74 c26 -32 -13 -81 -47 -59 -35 22 -23 74 17 74 10
0 23 -7 30 -15z m-23 -541 c-78 -96 -165 -202 -193 -236 -38 -46 -49 -68 -46
-88 2 -17 -3 -32 -17 -44 -20 -18 -22 -18 -41 -1 -25 23 -26 57 -1 72 11 7 88
97 172 200 84 103 155 190 158 193 3 3 23 27 44 53 31 38 42 45 53 36 11 -9
-14 -44 -129 -185z m771 151 c7 -14 12 -30 12 -35 0 -5 -31 -46 -68 -92 -37
-46 -87 -108 -110 -140 -50 -65 -68 -68 -99 -12 -22 38 -22 39 -3 46 11 4 47
45 79 90 120 167 122 168 151 168 19 0 30 -7 38 -25z m742 15 c0 -5 -2 -10 -4
-10 -3 0 -8 5 -11 10 -3 6 -1 10 4 10 6 0 11 -4 11 -10z m-312 -17 c-21 -2
-57 -2 -80 0 -24 2 -7 4 37 4 44 0 63 -2 43 -4z m-327 -191 c10 -26 -21 -65
-44 -56 -14 5 -35 -18 -199 -228 -64 -80 -78 -105 -78 -133 0 -28 -5 -38 -26
-47 -23 -11 -29 -10 -45 10 -22 28 -13 61 20 78 12 6 50 47 84 91 34 44 92
119 130 166 37 47 67 90 67 96 0 20 41 52 62 49 11 -2 25 -13 29 -26z m2836
22 c-3 -3 -12 -4 -19 -1 -8 3 -5 6 6 6 11 1 17 -2 13 -5z m553 2 c0 -2 -11 -6
-25 -8 -13 -3 -22 -1 -19 3 5 9 44 13 44 5z m-3272 -168 c4 -35 -37 -60 -63
-38 -32 27 -9 73 35 68 19 -2 26 -10 28 -30z m-754 -80 c-2 -26 -177 -226
-196 -225 -16 1 -16 3 -1 26 9 14 52 69 97 123 75 92 103 113 100 76z m-203
-324 c12 -33 -11 -74 -41 -74 -29 0 -54 43 -41 69 9 17 20 22 64 30 4 0 12
-11 18 -25z m5939 -3204 c-225 -5 -232 -6 -82 -8 89 -1 162 -6 162 -10 0 -4
-53 -7 -117 -6 -65 0 -94 -1 -65 -3 l52 -4 0 -39 c0 -40 0 -40 -40 -40 l-40 0
0 -40 0 -40 40 0 c33 0 40 -3 40 -20 0 -11 5 -20 11 -20 6 0 9 -9 6 -20 -4
-16 2 -20 42 -25 83 -11 78 -13 -46 -14 -75 -1 -123 -5 -123 -11 0 -7 -620 -9
-1842 -8 -1014 0 -1823 4 -1798 8 40 6 35 7 -40 10 -53 2 -69 5 -42 7 l42 4 0
45 0 44 40 0 40 0 0 40 c0 29 -4 40 -15 40 -23 0 -21 79 3 82 9 0 -5 4 -33 8
-46 6 -42 7 40 11 62 2 25 5 -115 9 -113 3 769 6 1960 6 1191 0 2055 -3 1920
-6z m-4017 -17 c-13 -2 -33 -2 -45 0 -13 2 -3 4 22 4 25 0 35 -2 23 -4z"/>
<path d="M10770 200 c0 -29 4 -40 15 -40 11 0 15 11 15 40 0 29 -4 40 -15 40
-11 0 -15 -11 -15 -40z"/>
</g>
</svg>
